<svg xmlns="http://www.w3.org/2000/svg" viewBox="0 0 110.98 110.98"><defs><style>.cls-1{fill:#232a79;}.cls-2{fill:#f9c00d;}.cls-3{fill:#fff;}</style></defs><g id="Layer_2" data-name="Layer 2"><g id="Layer_1-2" data-name="Layer 1"><circle class="cls-1" cx="55.49" cy="55.49" r="53.99"/><path class="cls-2" d="M55.49,3A52.49,52.49,0,1,1,3,55.49,52.49,52.49,0,0,1,55.49,3m0-3A55.49,55.49,0,1,0,111,55.49,55.55,55.55,0,0,0,55.49,0Z"/><path class="cls-2" d="M53.34,26.72A38.09,38.09,0,0,1,89.86,78.79s0,0,.06,0A39.16,39.16,0,1,0,17.79,54.19s.05.05.06,0A38.11,38.11,0,0,1,53.34,26.72Z"/><path class="cls-3" d="M70.15,74c-.76-1.45-1.18-2.28-4.1-4.91-4.86-4.37-5.06-4.4-5.73-5.22a18.53,18.53,0,0,1-3.73-6.4c-1.34-4.21-1.32-8.16-1.68-8.44-.69-.56-2.77,7.48-.43,12.62a6.16,6.16,0,0,0,.59,1.14H44.23V45.16c0-2,4.62-2.16,4.62-2.16H28.66s4.62.18,4.62,2.16v41s-.34,2.07-4.62,2.07H48.85c-4.28,0-4.62-2.07-4.62-2.07V66.12h14c2,1.47,2.94,1.67,5,3.42a35.28,35.28,0,0,1,3.08,3.24,13.36,13.36,0,0,1,3.06,5.72c.61,2.29-.06,3.92.53,4s1.73-1.63,1.8-3.24A9.54,9.54,0,0,0,70.15,74Z"/><path class="cls-2" d="M57.83,77.28c.27,0,.05,1.74.86,4.23a5.89,5.89,0,0,0,1.88,2.62c1.56,1.61,3.48,1.65,5.22,1.74a11.8,11.8,0,0,0,4-.5,5.53,5.53,0,0,0,3-1.79,7.58,7.58,0,0,0,1.79-3,8.13,8.13,0,0,0-.68-5.76c-.75-1.58-1.62-2.28-3.51-4,0,0-3.93-3.69-7.7-8-2-2.32-3.05-3.51-3.68-5a11.92,11.92,0,0,1-.6-8,12.24,12.24,0,0,1,4.47-6.44,13.11,13.11,0,0,1,7.34-2.47,20.61,20.61,0,0,1,8.43,2c.35.22,1.57,1,1.32,3.26a14.71,14.71,0,0,1-.59,3c-.27.83-.47.8-.73.82-.51.06,0-.53-1.48-2.65-.79-1.17-2.29-2.13-5.16-2.8a6.59,6.59,0,0,0-5.47,1,5.58,5.58,0,0,0-2.29,3.55c-.29,1.21-.35,2.29,1.35,4.91,1.93,3,3.66,4.38,7.44,8,4.67,4.47,4.87,4.85,5.85,6.12a13,13,0,0,1,2.31,8.36,13.43,13.43,0,0,1-2.39,7A13.81,13.81,0,0,1,73,87.81a15.87,15.87,0,0,1-6.16.92A22.35,22.35,0,0,1,60.4,88c-2.89-.79-3.45-1.78-3.59-2.07-.25-.5-.32-1,0-3.51C57.05,80.49,57.47,77.26,57.83,77.28Z"/></g></g></svg>